<mxfile host="app.diagrams.net" agent="Mozilla/5.0 (Windows NT 10.0; Win64; x64) AppleWebKit/537.36 (KHTML, like Gecko) Chrome/133.0.0.0 Safari/537.36 Edg/133.0.0.0" version="26.0.14" pages="4">
  <diagram name="Page-1" id="UTni43S_3TmiVto6Jk7S">
    <mxGraphModel dx="1952" dy="2244" grid="1" gridSize="10" guides="1" tooltips="1" connect="1" arrows="1" fold="1" page="1" pageScale="1" pageWidth="1169" pageHeight="1654" math="0" shadow="0">
      <root>
        <mxCell id="0" />
        <mxCell id="1" parent="0" />
        <mxCell id="LB1xIQHPyM5aXmpUzfVm-5" value="" style="rounded=0;whiteSpace=wrap;html=1;" parent="1" vertex="1">
          <mxGeometry x="270" y="305" width="700" height="1165" as="geometry" />
        </mxCell>
        <mxCell id="LB1xIQHPyM5aXmpUzfVm-3" value="" style="rounded=0;whiteSpace=wrap;html=1;fillColor=none;dashed=1;" parent="1" vertex="1">
          <mxGeometry x="310" y="370" width="620" height="1070" as="geometry" />
        </mxCell>
        <mxCell id="LB1xIQHPyM5aXmpUzfVm-4" value="&lt;span style=&quot;box-sizing: border-box; font-weight: bolder; color: rgb(36, 36, 36); font-family: &amp;quot;Segoe UI&amp;quot;, &amp;quot;Segoe UI Web (West European)&amp;quot;, -apple-system, BlinkMacSystemFont, Roboto, &amp;quot;Helvetica Neue&amp;quot;, sans-serif; font-size: 14px; text-align: left; background-color: rgb(255, 255, 255); border-radius: 0px !important;&quot;&gt;Online Food Delivery Service&lt;/span&gt;" style="text;html=1;align=center;verticalAlign=middle;whiteSpace=wrap;rounded=0;" parent="1" vertex="1">
          <mxGeometry x="270" y="320" width="130" height="30" as="geometry" />
        </mxCell>
        <mxCell id="LB1xIQHPyM5aXmpUzfVm-6" value="Legge inn en bestilling" style="text;html=1;align=center;verticalAlign=middle;whiteSpace=wrap;rounded=0;" parent="1" vertex="1">
          <mxGeometry x="300" y="380" width="110" height="30" as="geometry" />
        </mxCell>
        <mxCell id="EyFni_vox3gWSdTp74T--33" style="edgeStyle=orthogonalEdgeStyle;rounded=0;orthogonalLoop=1;jettySize=auto;html=1;exitX=0.5;exitY=1;exitDx=0;exitDy=0;entryX=0.5;entryY=0;entryDx=0;entryDy=0;" edge="1" parent="1" source="EyFni_vox3gWSdTp74T--4" target="EyFni_vox3gWSdTp74T--8">
          <mxGeometry relative="1" as="geometry" />
        </mxCell>
        <mxCell id="EyFni_vox3gWSdTp74T--4" value="logg inn&amp;nbsp;" style="html=1;whiteSpace=wrap;" vertex="1" parent="1">
          <mxGeometry x="410" y="450" width="110" height="30" as="geometry" />
        </mxCell>
        <mxCell id="EyFni_vox3gWSdTp74T--5" value="" style="ellipse;html=1;shape=endState;fillColor=#000000;strokeColor=#ff0000;" vertex="1" parent="1">
          <mxGeometry x="580" y="1330" width="30" height="30" as="geometry" />
        </mxCell>
        <mxCell id="EyFni_vox3gWSdTp74T--6" value="" style="ellipse;html=1;shape=startState;fillColor=#000000;strokeColor=#ff0000;" vertex="1" parent="1">
          <mxGeometry x="450" y="390" width="30" height="30" as="geometry" />
        </mxCell>
        <mxCell id="EyFni_vox3gWSdTp74T--7" value="" style="edgeStyle=orthogonalEdgeStyle;html=1;verticalAlign=bottom;endArrow=open;endSize=8;strokeColor=#ff0000;rounded=0;entryX=0.5;entryY=0;entryDx=0;entryDy=0;" edge="1" source="EyFni_vox3gWSdTp74T--6" parent="1" target="EyFni_vox3gWSdTp74T--4">
          <mxGeometry relative="1" as="geometry">
            <mxPoint x="575" y="450" as="targetPoint" />
          </mxGeometry>
        </mxCell>
        <mxCell id="EyFni_vox3gWSdTp74T--32" style="edgeStyle=orthogonalEdgeStyle;rounded=0;orthogonalLoop=1;jettySize=auto;html=1;exitX=0.5;exitY=1;exitDx=0;exitDy=0;entryX=0.5;entryY=0;entryDx=0;entryDy=0;" edge="1" parent="1" source="EyFni_vox3gWSdTp74T--8" target="EyFni_vox3gWSdTp74T--9">
          <mxGeometry relative="1" as="geometry" />
        </mxCell>
        <mxCell id="EyFni_vox3gWSdTp74T--8" value="ba gjennom restauranter og menyer" style="html=1;whiteSpace=wrap;" vertex="1" parent="1">
          <mxGeometry x="375" y="520" width="180" height="50" as="geometry" />
        </mxCell>
        <mxCell id="EyFni_vox3gWSdTp74T--34" style="edgeStyle=orthogonalEdgeStyle;rounded=0;orthogonalLoop=1;jettySize=auto;html=1;exitX=0.5;exitY=1;exitDx=0;exitDy=0;entryX=0.5;entryY=0;entryDx=0;entryDy=0;" edge="1" parent="1" source="EyFni_vox3gWSdTp74T--9" target="EyFni_vox3gWSdTp74T--10">
          <mxGeometry relative="1" as="geometry" />
        </mxCell>
        <mxCell id="EyFni_vox3gWSdTp74T--9" value="velg et&amp;nbsp;velg et måltid" style="html=1;whiteSpace=wrap;" vertex="1" parent="1">
          <mxGeometry x="410" y="600" width="100" height="40" as="geometry" />
        </mxCell>
        <mxCell id="EyFni_vox3gWSdTp74T--35" style="edgeStyle=orthogonalEdgeStyle;rounded=0;orthogonalLoop=1;jettySize=auto;html=1;exitX=0.5;exitY=1;exitDx=0;exitDy=0;entryX=0.5;entryY=0;entryDx=0;entryDy=0;" edge="1" parent="1" source="EyFni_vox3gWSdTp74T--10" target="EyFni_vox3gWSdTp74T--11">
          <mxGeometry relative="1" as="geometry" />
        </mxCell>
        <mxCell id="EyFni_vox3gWSdTp74T--10" value="legg&amp;nbsp;måltidet i handlekurven" style="html=1;whiteSpace=wrap;" vertex="1" parent="1">
          <mxGeometry x="375" y="660" width="170" height="50" as="geometry" />
        </mxCell>
        <mxCell id="EyFni_vox3gWSdTp74T--11" value="vurder handlekurven" style="html=1;whiteSpace=wrap;" vertex="1" parent="1">
          <mxGeometry x="410" y="730" width="110" height="50" as="geometry" />
        </mxCell>
        <mxCell id="EyFni_vox3gWSdTp74T--15" value="legge til flere bestillinger&amp;nbsp;" style="rhombus;whiteSpace=wrap;html=1;fontColor=#000000;fillColor=#ffffc0;strokeColor=#ff0000;" vertex="1" parent="1">
          <mxGeometry x="550" y="730" width="130" height="57" as="geometry" />
        </mxCell>
        <mxCell id="EyFni_vox3gWSdTp74T--16" value="ja" style="edgeStyle=orthogonalEdgeStyle;html=1;align=left;verticalAlign=bottom;endArrow=open;endSize=8;strokeColor=#ff0000;rounded=0;entryX=1;entryY=0.5;entryDx=0;entryDy=0;exitX=1;exitY=0.5;exitDx=0;exitDy=0;" edge="1" source="EyFni_vox3gWSdTp74T--15" parent="1" target="EyFni_vox3gWSdTp74T--8">
          <mxGeometry x="-1" relative="1" as="geometry">
            <mxPoint x="730" y="747" as="targetPoint" />
            <Array as="points">
              <mxPoint x="680" y="747" />
              <mxPoint x="710" y="747" />
              <mxPoint x="710" y="545" />
            </Array>
            <mxPoint as="offset" />
          </mxGeometry>
        </mxCell>
        <mxCell id="EyFni_vox3gWSdTp74T--17" value="nei" style="edgeStyle=orthogonalEdgeStyle;html=1;align=left;verticalAlign=top;endArrow=open;endSize=8;strokeColor=#ff0000;rounded=0;" edge="1" source="EyFni_vox3gWSdTp74T--15" parent="1">
          <mxGeometry x="-1" relative="1" as="geometry">
            <mxPoint x="590" y="827" as="targetPoint" />
          </mxGeometry>
        </mxCell>
        <mxCell id="EyFni_vox3gWSdTp74T--38" style="edgeStyle=orthogonalEdgeStyle;rounded=0;orthogonalLoop=1;jettySize=auto;html=1;exitX=0.5;exitY=1;exitDx=0;exitDy=0;entryX=0.5;entryY=0;entryDx=0;entryDy=0;" edge="1" parent="1" source="EyFni_vox3gWSdTp74T--18" target="EyFni_vox3gWSdTp74T--19">
          <mxGeometry relative="1" as="geometry" />
        </mxCell>
        <mxCell id="EyFni_vox3gWSdTp74T--18" value="velg betalingsmetode" style="html=1;whiteSpace=wrap;" vertex="1" parent="1">
          <mxGeometry x="540" y="827" width="110" height="50" as="geometry" />
        </mxCell>
        <mxCell id="EyFni_vox3gWSdTp74T--39" style="edgeStyle=orthogonalEdgeStyle;rounded=0;orthogonalLoop=1;jettySize=auto;html=1;exitX=0.5;exitY=1;exitDx=0;exitDy=0;entryX=0.5;entryY=0;entryDx=0;entryDy=0;" edge="1" parent="1" source="EyFni_vox3gWSdTp74T--19" target="EyFni_vox3gWSdTp74T--21">
          <mxGeometry relative="1" as="geometry" />
        </mxCell>
        <mxCell id="EyFni_vox3gWSdTp74T--19" value="behandle betaling" style="html=1;whiteSpace=wrap;" vertex="1" parent="1">
          <mxGeometry x="540" y="900" width="110" height="50" as="geometry" />
        </mxCell>
        <mxCell id="EyFni_vox3gWSdTp74T--21" value="er betalingen vellykket?" style="rhombus;whiteSpace=wrap;html=1;fontColor=#000000;fillColor=#ffffc0;strokeColor=#ff0000;" vertex="1" parent="1">
          <mxGeometry x="535" y="970" width="120" height="50" as="geometry" />
        </mxCell>
        <mxCell id="EyFni_vox3gWSdTp74T--22" value="nei" style="edgeStyle=orthogonalEdgeStyle;html=1;align=left;verticalAlign=bottom;endArrow=open;endSize=8;strokeColor=#ff0000;rounded=0;entryX=0.003;entryY=0.582;entryDx=0;entryDy=0;entryPerimeter=0;" edge="1" source="EyFni_vox3gWSdTp74T--21" parent="1" target="EyFni_vox3gWSdTp74T--30">
          <mxGeometry x="-1" relative="1" as="geometry">
            <mxPoint x="730" y="1000" as="targetPoint" />
          </mxGeometry>
        </mxCell>
        <mxCell id="EyFni_vox3gWSdTp74T--23" value="ja" style="edgeStyle=orthogonalEdgeStyle;html=1;align=left;verticalAlign=top;endArrow=open;endSize=8;strokeColor=#ff0000;rounded=0;entryX=0.5;entryY=0;entryDx=0;entryDy=0;" edge="1" source="EyFni_vox3gWSdTp74T--21" parent="1" target="EyFni_vox3gWSdTp74T--24">
          <mxGeometry x="-1" relative="1" as="geometry">
            <mxPoint x="590" y="1080" as="targetPoint" />
          </mxGeometry>
        </mxCell>
        <mxCell id="EyFni_vox3gWSdTp74T--40" style="edgeStyle=orthogonalEdgeStyle;rounded=0;orthogonalLoop=1;jettySize=auto;html=1;exitX=0.5;exitY=1;exitDx=0;exitDy=0;entryX=0.5;entryY=0;entryDx=0;entryDy=0;" edge="1" parent="1" source="EyFni_vox3gWSdTp74T--24" target="EyFni_vox3gWSdTp74T--25">
          <mxGeometry relative="1" as="geometry" />
        </mxCell>
        <mxCell id="EyFni_vox3gWSdTp74T--24" value="bekreft bestilling" style="html=1;whiteSpace=wrap;" vertex="1" parent="1">
          <mxGeometry x="540" y="1100" width="110" height="50" as="geometry" />
        </mxCell>
        <mxCell id="EyFni_vox3gWSdTp74T--41" style="edgeStyle=orthogonalEdgeStyle;rounded=0;orthogonalLoop=1;jettySize=auto;html=1;exitX=0.5;exitY=1;exitDx=0;exitDy=0;entryX=0.5;entryY=0;entryDx=0;entryDy=0;" edge="1" parent="1" source="EyFni_vox3gWSdTp74T--25" target="EyFni_vox3gWSdTp74T--26">
          <mxGeometry relative="1" as="geometry" />
        </mxCell>
        <mxCell id="EyFni_vox3gWSdTp74T--25" value="gi beskjed til restauranten" style="html=1;whiteSpace=wrap;" vertex="1" parent="1">
          <mxGeometry x="540" y="1170" width="110" height="50" as="geometry" />
        </mxCell>
        <mxCell id="EyFni_vox3gWSdTp74T--43" style="edgeStyle=orthogonalEdgeStyle;rounded=0;orthogonalLoop=1;jettySize=auto;html=1;exitX=0.5;exitY=1;exitDx=0;exitDy=0;entryX=0.5;entryY=0;entryDx=0;entryDy=0;" edge="1" parent="1" source="EyFni_vox3gWSdTp74T--26" target="EyFni_vox3gWSdTp74T--5">
          <mxGeometry relative="1" as="geometry" />
        </mxCell>
        <mxCell id="EyFni_vox3gWSdTp74T--26" value="send ordebekreftelse til kunden" style="html=1;whiteSpace=wrap;" vertex="1" parent="1">
          <mxGeometry x="540" y="1240" width="110" height="50" as="geometry" />
        </mxCell>
        <mxCell id="EyFni_vox3gWSdTp74T--44" style="edgeStyle=orthogonalEdgeStyle;rounded=0;orthogonalLoop=1;jettySize=auto;html=1;exitX=1;exitY=0.5;exitDx=0;exitDy=0;entryX=1;entryY=0.5;entryDx=0;entryDy=0;" edge="1" parent="1" source="EyFni_vox3gWSdTp74T--30" target="EyFni_vox3gWSdTp74T--18">
          <mxGeometry relative="1" as="geometry" />
        </mxCell>
        <mxCell id="EyFni_vox3gWSdTp74T--30" value="prøve pa nytt" style="html=1;whiteSpace=wrap;" vertex="1" parent="1">
          <mxGeometry x="740" y="990" width="110" height="50" as="geometry" />
        </mxCell>
        <mxCell id="EyFni_vox3gWSdTp74T--36" style="edgeStyle=orthogonalEdgeStyle;rounded=0;orthogonalLoop=1;jettySize=auto;html=1;exitX=1;exitY=0.5;exitDx=0;exitDy=0;entryX=0;entryY=0.5;entryDx=0;entryDy=0;" edge="1" parent="1" source="EyFni_vox3gWSdTp74T--11" target="EyFni_vox3gWSdTp74T--15">
          <mxGeometry relative="1" as="geometry">
            <mxPoint x="480" y="790" as="sourcePoint" />
            <mxPoint x="480" y="830" as="targetPoint" />
            <Array as="points">
              <mxPoint x="530" y="755" />
              <mxPoint x="530" y="758" />
            </Array>
          </mxGeometry>
        </mxCell>
      </root>
    </mxGraphModel>
  </diagram>
  <diagram id="D39fm87hIA6b8GRJ-XhU" name="Page-2">
    <mxGraphModel dx="813" dy="935" grid="1" gridSize="10" guides="1" tooltips="1" connect="1" arrows="1" fold="1" page="1" pageScale="1" pageWidth="827" pageHeight="1169" math="0" shadow="0">
      <root>
        <mxCell id="0" />
        <mxCell id="1" parent="0" />
        <mxCell id="m2JE4bxFuaP30-ywkY4z-1" value="" style="rounded=0;whiteSpace=wrap;html=1;" vertex="1" parent="1">
          <mxGeometry x="270" y="305" width="700" height="1165" as="geometry" />
        </mxCell>
        <mxCell id="m2JE4bxFuaP30-ywkY4z-3" value="&lt;span style=&quot;box-sizing: border-box; font-weight: bolder; color: rgb(36, 36, 36); font-family: &amp;quot;Segoe UI&amp;quot;, &amp;quot;Segoe UI Web (West European)&amp;quot;, -apple-system, BlinkMacSystemFont, Roboto, &amp;quot;Helvetica Neue&amp;quot;, sans-serif; font-size: 14px; text-align: left; background-color: rgb(255, 255, 255); border-radius: 0px !important;&quot;&gt;Online Food Delivery Service&lt;/span&gt;" style="text;html=1;align=center;verticalAlign=middle;whiteSpace=wrap;rounded=0;" vertex="1" parent="1">
          <mxGeometry x="270" y="320" width="130" height="30" as="geometry" />
        </mxCell>
        <mxCell id="m2JE4bxFuaP30-ywkY4z-4" value="Sporing av en levering" style="text;html=1;align=center;verticalAlign=middle;whiteSpace=wrap;rounded=0;" vertex="1" parent="1">
          <mxGeometry x="300" y="380" width="110" height="30" as="geometry" />
        </mxCell>
        <mxCell id="m2JE4bxFuaP30-ywkY4z-5" style="edgeStyle=orthogonalEdgeStyle;rounded=0;orthogonalLoop=1;jettySize=auto;html=1;exitX=0.5;exitY=1;exitDx=0;exitDy=0;entryX=0.5;entryY=0;entryDx=0;entryDy=0;" edge="1" parent="1" source="m2JE4bxFuaP30-ywkY4z-6" target="m2JE4bxFuaP30-ywkY4z-11">
          <mxGeometry relative="1" as="geometry" />
        </mxCell>
        <mxCell id="m2JE4bxFuaP30-ywkY4z-6" value="restaurant mottar bestillingen&amp;nbsp;" style="html=1;whiteSpace=wrap;" vertex="1" parent="1">
          <mxGeometry x="410" y="450" width="110" height="40" as="geometry" />
        </mxCell>
        <mxCell id="m2JE4bxFuaP30-ywkY4z-7" value="" style="ellipse;html=1;shape=endState;fillColor=#000000;strokeColor=#ff0000;" vertex="1" parent="1">
          <mxGeometry x="705" y="1300" width="30" height="30" as="geometry" />
        </mxCell>
        <mxCell id="m2JE4bxFuaP30-ywkY4z-8" value="" style="ellipse;html=1;shape=startState;fillColor=#000000;strokeColor=#ff0000;" vertex="1" parent="1">
          <mxGeometry x="450" y="390" width="30" height="30" as="geometry" />
        </mxCell>
        <mxCell id="m2JE4bxFuaP30-ywkY4z-9" value="" style="edgeStyle=orthogonalEdgeStyle;html=1;verticalAlign=bottom;endArrow=open;endSize=8;strokeColor=#ff0000;rounded=0;entryX=0.5;entryY=0;entryDx=0;entryDy=0;" edge="1" parent="1" source="m2JE4bxFuaP30-ywkY4z-8" target="m2JE4bxFuaP30-ywkY4z-6">
          <mxGeometry relative="1" as="geometry">
            <mxPoint x="575" y="450" as="targetPoint" />
          </mxGeometry>
        </mxCell>
        <mxCell id="m2JE4bxFuaP30-ywkY4z-10" style="edgeStyle=orthogonalEdgeStyle;rounded=0;orthogonalLoop=1;jettySize=auto;html=1;exitX=0.5;exitY=1;exitDx=0;exitDy=0;entryX=0.5;entryY=0;entryDx=0;entryDy=0;" edge="1" parent="1" source="m2JE4bxFuaP30-ywkY4z-11" target="m2JE4bxFuaP30-ywkY4z-13">
          <mxGeometry relative="1" as="geometry" />
        </mxCell>
        <mxCell id="m2JE4bxFuaP30-ywkY4z-11" value="Restaurant forberdrer bestilling" style="html=1;whiteSpace=wrap;" vertex="1" parent="1">
          <mxGeometry x="410" y="520" width="110" height="50" as="geometry" />
        </mxCell>
        <mxCell id="m2JE4bxFuaP30-ywkY4z-12" style="edgeStyle=orthogonalEdgeStyle;rounded=0;orthogonalLoop=1;jettySize=auto;html=1;exitX=0.5;exitY=1;exitDx=0;exitDy=0;entryX=0.5;entryY=0;entryDx=0;entryDy=0;" edge="1" parent="1" source="m2JE4bxFuaP30-ywkY4z-13" target="m2JE4bxFuaP30-ywkY4z-16">
          <mxGeometry relative="1" as="geometry">
            <mxPoint x="460.0000000000001" y="670" as="targetPoint" />
          </mxGeometry>
        </mxCell>
        <mxCell id="m2JE4bxFuaP30-ywkY4z-13" value="Restaurant merker bestilling som &quot;klar&quot;" style="html=1;whiteSpace=wrap;" vertex="1" parent="1">
          <mxGeometry x="375" y="600" width="180" height="50" as="geometry" />
        </mxCell>
        <mxCell id="m2JE4bxFuaP30-ywkY4z-42" style="edgeStyle=orthogonalEdgeStyle;rounded=0;orthogonalLoop=1;jettySize=auto;html=1;exitX=0.5;exitY=1;exitDx=0;exitDy=0;entryX=0.5;entryY=0;entryDx=0;entryDy=0;" edge="1" parent="1" source="m2JE4bxFuaP30-ywkY4z-16" target="m2JE4bxFuaP30-ywkY4z-40">
          <mxGeometry relative="1" as="geometry" />
        </mxCell>
        <mxCell id="m2JE4bxFuaP30-ywkY4z-16" value="leveringspersonell henter bestilling" style="html=1;whiteSpace=wrap;" vertex="1" parent="1">
          <mxGeometry x="390" y="680" width="150" height="100" as="geometry" />
        </mxCell>
        <mxCell id="m2JE4bxFuaP30-ywkY4z-44" style="edgeStyle=orthogonalEdgeStyle;rounded=0;orthogonalLoop=1;jettySize=auto;html=1;exitX=0.5;exitY=1;exitDx=0;exitDy=0;entryX=0.5;entryY=0;entryDx=0;entryDy=0;" edge="1" parent="1" source="m2JE4bxFuaP30-ywkY4z-21" target="m2JE4bxFuaP30-ywkY4z-23">
          <mxGeometry relative="1" as="geometry" />
        </mxCell>
        <mxCell id="m2JE4bxFuaP30-ywkY4z-21" value="leveringspersonell merker&amp;nbsp; bestillingen som &quot;ut for levering&quot;" style="html=1;whiteSpace=wrap;" vertex="1" parent="1">
          <mxGeometry x="630" y="700" width="180" height="70" as="geometry" />
        </mxCell>
        <mxCell id="m2JE4bxFuaP30-ywkY4z-45" style="edgeStyle=orthogonalEdgeStyle;rounded=0;orthogonalLoop=1;jettySize=auto;html=1;exitX=0.5;exitY=1;exitDx=0;exitDy=0;entryX=0.5;entryY=0;entryDx=0;entryDy=0;" edge="1" parent="1" source="m2JE4bxFuaP30-ywkY4z-23" target="m2JE4bxFuaP30-ywkY4z-24">
          <mxGeometry relative="1" as="geometry" />
        </mxCell>
        <mxCell id="m2JE4bxFuaP30-ywkY4z-23" value="leveringspersonell leverer bestillingen til kunden" style="html=1;whiteSpace=wrap;" vertex="1" parent="1">
          <mxGeometry x="640" y="820" width="160" height="70" as="geometry" />
        </mxCell>
        <mxCell id="m2JE4bxFuaP30-ywkY4z-24" value="Har kunden fatt leveringen ?" style="rhombus;whiteSpace=wrap;html=1;fontColor=#000000;fillColor=#ffffc0;strokeColor=#ff0000;" vertex="1" parent="1">
          <mxGeometry x="650" y="920" width="140" height="120" as="geometry" />
        </mxCell>
        <mxCell id="m2JE4bxFuaP30-ywkY4z-25" value="nei" style="edgeStyle=orthogonalEdgeStyle;html=1;align=left;verticalAlign=bottom;endArrow=open;endSize=8;strokeColor=#ff0000;rounded=0;entryX=0.716;entryY=-0.034;entryDx=0;entryDy=0;entryPerimeter=0;exitX=1;exitY=0.5;exitDx=0;exitDy=0;" edge="1" parent="1" source="m2JE4bxFuaP30-ywkY4z-24" target="m2JE4bxFuaP30-ywkY4z-39">
          <mxGeometry x="-1" relative="1" as="geometry">
            <mxPoint x="740.3299999999999" y="1019.0999999999999" as="targetPoint" />
          </mxGeometry>
        </mxCell>
        <mxCell id="m2JE4bxFuaP30-ywkY4z-26" value="ja" style="edgeStyle=orthogonalEdgeStyle;html=1;align=left;verticalAlign=top;endArrow=open;endSize=8;strokeColor=#ff0000;rounded=0;entryX=0.5;entryY=0;entryDx=0;entryDy=0;exitX=0;exitY=0.5;exitDx=0;exitDy=0;" edge="1" parent="1" source="m2JE4bxFuaP30-ywkY4z-24" target="m2JE4bxFuaP30-ywkY4z-28">
          <mxGeometry x="-1" relative="1" as="geometry">
            <mxPoint x="590" y="1080" as="targetPoint" />
          </mxGeometry>
        </mxCell>
        <mxCell id="m2JE4bxFuaP30-ywkY4z-27" style="edgeStyle=orthogonalEdgeStyle;rounded=0;orthogonalLoop=1;jettySize=auto;html=1;exitX=0.5;exitY=1;exitDx=0;exitDy=0;entryX=0;entryY=0.5;entryDx=0;entryDy=0;" edge="1" parent="1" source="m2JE4bxFuaP30-ywkY4z-28" target="m2JE4bxFuaP30-ywkY4z-30">
          <mxGeometry relative="1" as="geometry" />
        </mxCell>
        <mxCell id="m2JE4bxFuaP30-ywkY4z-28" value="leveringspersonell merker&amp;nbsp; bestillingen som &quot;levert&quot;" style="html=1;whiteSpace=wrap;" vertex="1" parent="1">
          <mxGeometry x="490" y="1090" width="200" height="50" as="geometry" />
        </mxCell>
        <mxCell id="m2JE4bxFuaP30-ywkY4z-29" style="edgeStyle=orthogonalEdgeStyle;rounded=0;orthogonalLoop=1;jettySize=auto;html=1;exitX=0.5;exitY=1;exitDx=0;exitDy=0;entryX=0.5;entryY=0;entryDx=0;entryDy=0;" edge="1" parent="1" source="m2JE4bxFuaP30-ywkY4z-30" target="m2JE4bxFuaP30-ywkY4z-7">
          <mxGeometry relative="1" as="geometry">
            <mxPoint x="730" y="1280" as="targetPoint" />
          </mxGeometry>
        </mxCell>
        <mxCell id="m2JE4bxFuaP30-ywkY4z-30" value="systemt opdaterer leveringsstatus i real time&amp;nbsp;" style="html=1;whiteSpace=wrap;" vertex="1" parent="1">
          <mxGeometry x="665" y="1190" width="110" height="50" as="geometry" />
        </mxCell>
        <mxCell id="m2JE4bxFuaP30-ywkY4z-46" style="edgeStyle=orthogonalEdgeStyle;rounded=0;orthogonalLoop=1;jettySize=auto;html=1;exitX=0.5;exitY=1;exitDx=0;exitDy=0;entryX=1;entryY=0.5;entryDx=0;entryDy=0;" edge="1" parent="1" source="m2JE4bxFuaP30-ywkY4z-39" target="m2JE4bxFuaP30-ywkY4z-30">
          <mxGeometry relative="1" as="geometry" />
        </mxCell>
        <mxCell id="m2JE4bxFuaP30-ywkY4z-39" value="leveringspersonell merker&amp;nbsp; bestillingen som &quot;retur&quot;" style="html=1;whiteSpace=wrap;" vertex="1" parent="1">
          <mxGeometry x="740" y="1090" width="200" height="50" as="geometry" />
        </mxCell>
        <mxCell id="m2JE4bxFuaP30-ywkY4z-43" style="edgeStyle=orthogonalEdgeStyle;rounded=0;orthogonalLoop=1;jettySize=auto;html=1;exitX=1;exitY=0.5;exitDx=0;exitDy=0;entryX=0;entryY=0.5;entryDx=0;entryDy=0;" edge="1" parent="1" source="m2JE4bxFuaP30-ywkY4z-40" target="m2JE4bxFuaP30-ywkY4z-21">
          <mxGeometry relative="1" as="geometry" />
        </mxCell>
        <mxCell id="m2JE4bxFuaP30-ywkY4z-40" value="kunden sporer leveringsstatusen&amp;nbsp;" style="html=1;whiteSpace=wrap;" vertex="1" parent="1">
          <mxGeometry x="410" y="820" width="110" height="50" as="geometry" />
        </mxCell>
        <mxCell id="AcqlbtFywBiDCekT1c9h-1" value="" style="rounded=0;whiteSpace=wrap;html=1;fillColor=none;dashed=1;" vertex="1" parent="1">
          <mxGeometry x="310" y="370" width="640" height="1070" as="geometry" />
        </mxCell>
      </root>
    </mxGraphModel>
  </diagram>
  <diagram id="UIwSwEQW-5SpbmLcdfBv" name="Page-3">
    <mxGraphModel dx="1627" dy="1870" grid="1" gridSize="10" guides="1" tooltips="1" connect="1" arrows="1" fold="1" page="1" pageScale="1" pageWidth="827" pageHeight="1169" math="0" shadow="0">
      <root>
        <mxCell id="0" />
        <mxCell id="1" parent="0" />
        <mxCell id="nFXU3PTLAg3z3C8EWtAP-1" value="" style="rounded=0;whiteSpace=wrap;html=1;" vertex="1" parent="1">
          <mxGeometry x="270" y="305" width="370" height="885" as="geometry" />
        </mxCell>
        <mxCell id="nFXU3PTLAg3z3C8EWtAP-2" value="&lt;span style=&quot;box-sizing: border-box; font-weight: bolder; color: rgb(36, 36, 36); font-family: &amp;quot;Segoe UI&amp;quot;, &amp;quot;Segoe UI Web (West European)&amp;quot;, -apple-system, BlinkMacSystemFont, Roboto, &amp;quot;Helvetica Neue&amp;quot;, sans-serif; font-size: 14px; text-align: left; background-color: rgb(255, 255, 255); border-radius: 0px !important;&quot;&gt;Online Food Delivery Service&lt;/span&gt;" style="text;html=1;align=center;verticalAlign=middle;whiteSpace=wrap;rounded=0;" vertex="1" parent="1">
          <mxGeometry x="270" y="320" width="130" height="30" as="geometry" />
        </mxCell>
        <mxCell id="nFXU3PTLAg3z3C8EWtAP-3" value="Oppdatering av ordrestatus fra restaurant" style="text;html=1;align=center;verticalAlign=middle;whiteSpace=wrap;rounded=0;" vertex="1" parent="1">
          <mxGeometry x="300" y="380" width="110" height="30" as="geometry" />
        </mxCell>
        <mxCell id="nFXU3PTLAg3z3C8EWtAP-4" style="edgeStyle=orthogonalEdgeStyle;rounded=0;orthogonalLoop=1;jettySize=auto;html=1;exitX=0.5;exitY=1;exitDx=0;exitDy=0;entryX=0.5;entryY=0;entryDx=0;entryDy=0;" edge="1" parent="1" source="nFXU3PTLAg3z3C8EWtAP-5" target="nFXU3PTLAg3z3C8EWtAP-10">
          <mxGeometry relative="1" as="geometry" />
        </mxCell>
        <mxCell id="nFXU3PTLAg3z3C8EWtAP-5" value="restaurant mottar bestillingen&amp;nbsp;" style="html=1;whiteSpace=wrap;" vertex="1" parent="1">
          <mxGeometry x="410" y="450" width="110" height="40" as="geometry" />
        </mxCell>
        <mxCell id="nFXU3PTLAg3z3C8EWtAP-6" value="" style="ellipse;html=1;shape=endState;fillColor=#000000;strokeColor=#ff0000;" vertex="1" parent="1">
          <mxGeometry x="455" y="1070" width="30" height="30" as="geometry" />
        </mxCell>
        <mxCell id="nFXU3PTLAg3z3C8EWtAP-7" value="" style="ellipse;html=1;shape=startState;fillColor=#000000;strokeColor=#ff0000;" vertex="1" parent="1">
          <mxGeometry x="450" y="390" width="30" height="30" as="geometry" />
        </mxCell>
        <mxCell id="nFXU3PTLAg3z3C8EWtAP-8" value="" style="edgeStyle=orthogonalEdgeStyle;html=1;verticalAlign=bottom;endArrow=open;endSize=8;strokeColor=#ff0000;rounded=0;entryX=0.5;entryY=0;entryDx=0;entryDy=0;" edge="1" parent="1" source="nFXU3PTLAg3z3C8EWtAP-7" target="nFXU3PTLAg3z3C8EWtAP-5">
          <mxGeometry relative="1" as="geometry">
            <mxPoint x="575" y="450" as="targetPoint" />
          </mxGeometry>
        </mxCell>
        <mxCell id="nFXU3PTLAg3z3C8EWtAP-9" style="edgeStyle=orthogonalEdgeStyle;rounded=0;orthogonalLoop=1;jettySize=auto;html=1;exitX=0.5;exitY=1;exitDx=0;exitDy=0;entryX=0.5;entryY=0;entryDx=0;entryDy=0;" edge="1" parent="1" source="nFXU3PTLAg3z3C8EWtAP-10" target="nFXU3PTLAg3z3C8EWtAP-12">
          <mxGeometry relative="1" as="geometry" />
        </mxCell>
        <mxCell id="nFXU3PTLAg3z3C8EWtAP-10" value="Restaurant merker bestilling som &quot;under forberdelse&quot;" style="html=1;whiteSpace=wrap;" vertex="1" parent="1">
          <mxGeometry x="380" y="520" width="170" height="50" as="geometry" />
        </mxCell>
        <mxCell id="nFXU3PTLAg3z3C8EWtAP-11" style="edgeStyle=orthogonalEdgeStyle;rounded=0;orthogonalLoop=1;jettySize=auto;html=1;exitX=0.5;exitY=1;exitDx=0;exitDy=0;entryX=0.5;entryY=0;entryDx=0;entryDy=0;" edge="1" parent="1" source="nFXU3PTLAg3z3C8EWtAP-12">
          <mxGeometry relative="1" as="geometry">
            <mxPoint x="465" y="680" as="targetPoint" />
          </mxGeometry>
        </mxCell>
        <mxCell id="nFXU3PTLAg3z3C8EWtAP-12" value="Restaurant forberfder bestillingen" style="html=1;whiteSpace=wrap;" vertex="1" parent="1">
          <mxGeometry x="375" y="600" width="180" height="50" as="geometry" />
        </mxCell>
        <mxCell id="nFXU3PTLAg3z3C8EWtAP-16" value="leveringspersonell henter bestillinger&amp;nbsp;" style="html=1;whiteSpace=wrap;" vertex="1" parent="1">
          <mxGeometry x="380" y="760" width="180" height="70" as="geometry" />
        </mxCell>
        <mxCell id="HBZwkUzMC-mILk5W0i3s-3" value="Restaurant merker bestilling som &quot;klar for henting&quot;" style="html=1;whiteSpace=wrap;" vertex="1" parent="1">
          <mxGeometry x="380" y="680" width="170" height="50" as="geometry" />
        </mxCell>
        <mxCell id="HBZwkUzMC-mILk5W0i3s-13" style="edgeStyle=orthogonalEdgeStyle;rounded=0;orthogonalLoop=1;jettySize=auto;html=1;exitX=0.5;exitY=1;exitDx=0;exitDy=0;entryX=0.5;entryY=0;entryDx=0;entryDy=0;" edge="1" parent="1" source="HBZwkUzMC-mILk5W0i3s-4" target="HBZwkUzMC-mILk5W0i3s-5">
          <mxGeometry relative="1" as="geometry" />
        </mxCell>
        <mxCell id="HBZwkUzMC-mILk5W0i3s-4" value="Restaurant merker bestilling som &quot;fullfort&quot;" style="html=1;whiteSpace=wrap;" vertex="1" parent="1">
          <mxGeometry x="390" y="870" width="170" height="50" as="geometry" />
        </mxCell>
        <mxCell id="HBZwkUzMC-mILk5W0i3s-14" style="edgeStyle=orthogonalEdgeStyle;rounded=0;orthogonalLoop=1;jettySize=auto;html=1;exitX=0.5;exitY=1;exitDx=0;exitDy=0;entryX=0.5;entryY=0;entryDx=0;entryDy=0;" edge="1" parent="1" source="HBZwkUzMC-mILk5W0i3s-5" target="nFXU3PTLAg3z3C8EWtAP-6">
          <mxGeometry relative="1" as="geometry" />
        </mxCell>
        <mxCell id="HBZwkUzMC-mILk5W0i3s-5" value="Systemet oppdaterer orderstatusen" style="html=1;whiteSpace=wrap;" vertex="1" parent="1">
          <mxGeometry x="380" y="950" width="180" height="70" as="geometry" />
        </mxCell>
        <mxCell id="HBZwkUzMC-mILk5W0i3s-10" style="edgeStyle=orthogonalEdgeStyle;rounded=0;orthogonalLoop=1;jettySize=auto;html=1;exitX=0.5;exitY=1;exitDx=0;exitDy=0;entryX=0.476;entryY=0.032;entryDx=0;entryDy=0;entryPerimeter=0;" edge="1" parent="1" source="HBZwkUzMC-mILk5W0i3s-3" target="nFXU3PTLAg3z3C8EWtAP-16">
          <mxGeometry relative="1" as="geometry" />
        </mxCell>
        <mxCell id="HBZwkUzMC-mILk5W0i3s-12" style="edgeStyle=orthogonalEdgeStyle;rounded=0;orthogonalLoop=1;jettySize=auto;html=1;exitX=0.5;exitY=1;exitDx=0;exitDy=0;entryX=0.475;entryY=0.074;entryDx=0;entryDy=0;entryPerimeter=0;" edge="1" parent="1" source="nFXU3PTLAg3z3C8EWtAP-16" target="HBZwkUzMC-mILk5W0i3s-4">
          <mxGeometry relative="1" as="geometry" />
        </mxCell>
        <mxCell id="VQVRde69vYSwtX7lwkq3-1" value="" style="rounded=0;whiteSpace=wrap;html=1;fillColor=none;dashed=1;" vertex="1" parent="1">
          <mxGeometry x="310" y="370" width="290" height="780" as="geometry" />
        </mxCell>
      </root>
    </mxGraphModel>
  </diagram>
  <diagram id="W3e4ES3mdgn2HJ1Og5lF" name="Page-4">
    <mxGraphModel dx="1627" dy="1870" grid="1" gridSize="10" guides="1" tooltips="1" connect="1" arrows="1" fold="1" page="1" pageScale="1" pageWidth="827" pageHeight="1169" math="0" shadow="0">
      <root>
        <mxCell id="0" />
        <mxCell id="1" parent="0" />
      </root>
    </mxGraphModel>
  </diagram>
</mxfile>
